<?xml version="1.0" standalone="no"?>
<!DOCTYPE svg PUBLIC "-//W3C//DTD SVG 20010904//EN"
 "http://www.w3.org/TR/2001/REC-SVG-20010904/DTD/svg10.dtd">
<svg version="1.0" xmlns="http://www.w3.org/2000/svg"
 width="512.000000pt" height="512.000000pt" viewBox="0 0 512.000000 512.000000"
 preserveAspectRatio="xMidYMid meet">

<g transform="translate(0.000000,512.000000) scale(0.100000,-0.100000)"
fill="#000000" stroke="none">
<path d="M3520 4880 l0 -80 80 0 80 0 0 80 0 80 -80 0 -80 0 0 -80z"/>
<path d="M4146 4949 c-62 -15 -153 -68 -197 -116 -50 -55 -96 -151 -105 -220
l-7 -53 79 0 79 0 12 51 c22 90 92 160 182 182 l51 12 0 77 0 78 -27 -1 c-16
-1 -45 -5 -67 -10z"/>
<path d="M1338 3862 c-864 -864 -928 -929 -928 -961 0 -29 13 -47 92 -127 50
-52 96 -94 102 -94 14 0 1916 1902 1916 1916 0 6 -42 52 -94 102 -80 79 -98
92 -127 92 -32 0 -97 -64 -961 -928z"/>
<path d="M4675 4649 c-84 -11 -221 -52 -290 -86 -67 -35 -155 -91 -155 -100 0
-5 21 -34 46 -66 l45 -58 32 21 c60 41 194 100 263 116 62 15 247 22 308 12
16 -2 21 7 32 52 19 80 18 97 -8 103 -48 12 -206 15 -273 6z"/>
<path d="M1319 4597 c-20 -8 -49 -23 -65 -35 -55 -40 -622 -617 -640 -652 -27
-51 -25 -162 3 -215 12 -22 65 -83 117 -135 l96 -95 57 57 57 57 -97 99 c-77
79 -97 105 -97 128 0 24 47 76 308 336 260 261 312 308 336 308 23 0 49 -20
128 -97 l99 -97 57 57 57 57 -95 96 c-52 52 -113 105 -134 116 -50 26 -139 33
-187 15z"/>
<path d="M3630 4279 c-102 -21 -186 -38 -187 -39 -2 0 -3 -37 -3 -82 0 -63 10
-121 39 -236 22 -84 41 -155 43 -157 2 -3 146 13 319 35 173 22 315 40 317 40
1 0 -51 71 -117 159 -66 87 -138 195 -160 240 -23 44 -47 81 -54 80 -6 -1 -95
-18 -197 -40z"/>
<path d="M4560 4080 l0 -80 80 0 80 0 0 80 0 80 -80 0 -80 0 0 -80z"/>
<path d="M2520 3921 l-120 -161 160 -80 161 -80 198 2 199 3 -78 195 c-53 132
-84 197 -96 202 -11 4 -75 21 -144 38 -69 17 -133 33 -142 36 -12 4 -48 -36
-138 -155z"/>
<path d="M1291 3136 l-63 -64 176 -1338 c97 -737 176 -1345 176 -1352 0 -7 11
-24 25 -37 l24 -25 931 0 931 0 24 25 c14 13 25 31 25 39 0 17 356 2734 365
2784 l6 32 -1278 0 -1279 0 -63 -64z m703 -268 c55 -16 138 -99 154 -154 17
-59 17 -1849 0 -1908 -26 -86 -136 -166 -228 -166 -92 0 -202 80 -228 166 -17
59 -17 1849 0 1908 15 51 99 137 148 153 48 15 105 15 154 1z m640 0 c55 -16
138 -99 154 -154 9 -31 12 -267 12 -954 0 -687 -3 -923 -12 -954 -26 -86 -136
-166 -228 -166 -92 0 -202 80 -228 166 -17 59 -17 1849 0 1908 15 51 99 137
148 153 48 15 105 15 154 1z m640 0 c55 -16 138 -99 154 -154 9 -31 12 -267
12 -954 0 -687 -3 -923 -12 -954 -26 -86 -136 -166 -228 -166 -92 0 -202 80
-228 166 -17 59 -17 1849 0 1908 15 51 99 137 148 153 48 15 105 15 154 1z"/>
<path d="M1865 2695 l-25 -24 0 -911 0 -911 25 -24 c15 -16 36 -25 55 -25 19
0 40 9 55 25 l25 24 0 911 0 911 -25 24 c-15 16 -36 25 -55 25 -19 0 -40 -9
-55 -25z"/>
<path d="M2505 2695 l-25 -24 0 -911 0 -911 25 -24 c15 -16 36 -25 55 -25 19
0 40 9 55 25 l25 24 0 911 0 911 -25 24 c-15 16 -36 25 -55 25 -19 0 -40 -9
-55 -25z"/>
<path d="M3145 2695 l-25 -24 0 -911 0 -911 25 -24 c15 -16 36 -25 55 -25 19
0 40 9 55 25 l25 24 0 911 0 911 -25 24 c-15 16 -36 25 -55 25 -19 0 -40 -9
-55 -25z"/>
</g>
</svg>
