<?xml version="1.0" standalone="no"?>
<!DOCTYPE svg PUBLIC "-//W3C//DTD SVG 20010904//EN"
 "http://www.w3.org/TR/2001/REC-SVG-20010904/DTD/svg10.dtd">
<svg version="1.0" xmlns="http://www.w3.org/2000/svg"
 width="512.000000pt" height="512.000000pt" viewBox="0 0 512.000000 512.000000"
 preserveAspectRatio="xMidYMid meet">

<g transform="translate(0.000000,512.000000) scale(0.100000,-0.100000)"
fill="#000000" stroke="none">
<path d="M1929 5101 c-37 -21 -79 -88 -79 -127 0 -10 13 -68 29 -129 74 -276
105 -502 105 -765 0 -266 -30 -436 -110 -621 -56 -133 -116 -213 -294 -394
-176 -180 -215 -228 -260 -329 -49 -108 -64 -180 -64 -311 0 -142 16 -212 75
-334 l41 -83 -649 -652 c-604 -605 -651 -655 -677 -714 -79 -181 -45 -374 88
-508 134 -133 327 -167 508 -88 59 26 109 73 714 677 l652 649 83 -41 c104
-51 179 -70 294 -78 148 -9 296 28 432 108 33 20 134 108 239 211 192 187 270
246 403 302 185 80 355 110 621 110 263 0 489 -31 765 -105 131 -35 137 -35
192 -8 31 15 50 33 65 62 20 39 20 52 14 193 -27 640 -238 1234 -617 1739
-569 759 -1442 1218 -2379 1250 -142 5 -158 4 -191 -14z m436 -306 c128 -17
221 -35 341 -66 l82 -21 -54 -212 c-30 -116 -79 -284 -109 -372 -30 -89 -55
-174 -55 -189 0 -67 81 -145 150 -145 43 0 105 38 128 78 33 59 125 347 177
553 l47 187 37 -15 c225 -93 582 -318 739 -466 l32 -31 -274 -276 c-240 -241
-276 -280 -286 -319 -29 -110 72 -210 182 -181 37 10 79 48 318 286 l276 274
31 -32 c148 -158 373 -514 466 -740 l15 -36 -111 -28 c-280 -68 -566 -158
-638 -201 -32 -19 -69 -85 -69 -123 0 -70 78 -150 146 -150 16 0 94 23 174 51
80 28 247 77 371 109 l227 58 21 -82 c42 -159 93 -487 79 -501 -3 -3 -34 1
-69 9 -214 50 -541 82 -740 73 -369 -17 -614 -87 -867 -250 l-64 -40 -535 536
-536 535 40 64 c163 253 233 498 250 867 9 199 -23 526 -72 739 -8 35 -15 65
-15 68 0 7 46 4 165 -11z m405 -3087 c-138 -129 -270 -176 -419 -149 -139 25
-169 47 -457 335 -289 289 -312 320 -336 462 -10 60 -9 85 5 154 19 99 55 162
151 267 l69 75 534 -534 534 -533 -81 -77z m-1597 -751 c-340 -340 -635 -627
-655 -638 -48 -24 -89 -24 -138 1 -69 35 -98 124 -64 193 9 18 296 312 637
654 l622 623 107 -107 108 -108 -617 -618z"/>
</g>
</svg>
